<?xml version="1.0" encoding="utf-8"?><!-- Uploaded to: SVG Repo, www.svgrepo.com, Generator: SVG Repo Mixer Tools -->
<svg fill="#ffffff" width="800px" height="800px" viewBox="0 0 256 256" id="Flat" xmlns="http://www.w3.org/2000/svg">
  <path d="M236,128A108,108,0,1,0,127.97412,235.99951L128,236.001l.02588-.00147A108.1216,108.1216,0,0,0,236,128Zm-96,83.12891V156.001h20a12,12,0,0,0,0-24H140v-20a12.01375,12.01375,0,0,1,12-12h16a12,12,0,0,0,0-24H152a36.04061,36.04061,0,0,0-36,36v20H96a12,12,0,0,0,0,24h20v55.12793a84,84,0,1,1,24,0Z"/>
</svg>